<svg xmlns="http://www.w3.org/2000/svg" width="12.5" height="13" viewBox="0 0 12.5 13">
  <defs>
    <style>
      .cls-1 {
        fill: #494949;
        fill-rule: evenodd;
      }
    </style>
  </defs>
  <path id="bag" class="cls-1" d="M320.991,55.5h-11.48a0.476,0.476,0,0,1-.366-0.161A0.529,0.529,0,0,1,309,54.956l0.751-9.671a0.509,0.509,0,0,1,.508-0.464h9.957a0.509,0.509,0,0,1,.508.464l0.772,9.651a0.459,0.459,0,0,1-.143.384,0.41,0.41,0,0,1-.365.182m-10.932-1.009h10.383l-0.691-8.641h-9ZM317.5,46.9a0.5,0.5,0,0,1-.508-0.5V45.245a1.748,1.748,0,0,0-3.5,0V46.4a0.508,0.508,0,0,1-1.016,0V45.245a2.764,2.764,0,0,1,5.527,0V46.4a0.49,0.49,0,0,1-.508.5m2.357,7.188h-1.016a0.182,0.182,0,1,1,0-.363h0.813l-0.143-1.211a0.2,0.2,0,0,1,.386-0.061l0.183,1.413a0.294,0.294,0,0,1-.04.141,0.643,0.643,0,0,1-.183.081" transform="translate(-309 -42.5)"/>
</svg>
