<svg xmlns="http://www.w3.org/2000/svg" width="25" height="26" viewBox="0 0 25 26">
  <defs>
    <style>
      .cls-1 {
        fill: #494949;
        fill-rule: evenodd;
      }
    </style>
  </defs>
  <path id="bag" class="cls-1" d="M641.981,111h-22.96a0.953,0.953,0,0,1-.731-0.323,1.057,1.057,0,0,1-.285-0.767l1.5-19.342a1.015,1.015,0,0,1,1.016-.929h19.912a1.016,1.016,0,0,1,1.016.929l1.544,19.3a0.917,0.917,0,0,1-.284.767,0.824,0.824,0,0,1-.732.363m-21.863-2.019h20.766L639.5,91.7h-18ZM634.992,93.8a1,1,0,0,1-1.016-1.01v-2.3a3.5,3.5,0,0,0-6.99,0v2.3a1.016,1.016,0,0,1-2.032,0v-2.3a5.527,5.527,0,0,1,11.054,0v2.3a0.979,0.979,0,0,1-1.016,1.01m4.714,14.376h-2.032a0.364,0.364,0,1,1,0-.727H639.3l-0.284-2.423a0.391,0.391,0,0,1,.772-0.121l0.366,2.827a0.576,0.576,0,0,1-.082.282,1.247,1.247,0,0,1-.365.162" transform="translate(-618 -85)"/>
</svg>
