<svg xmlns="http://www.w3.org/2000/svg" width="11" height="13" viewBox="0 0 11 13">
  <defs>
    <style>
      .cls-1 {
        fill: #494949;
        fill-rule: evenodd;
      }
    </style>
  </defs>
  <path id="share" class="cls-1" d="M353.217,55.5h-7.433A1.779,1.779,0,0,1,344,53.728V46.785a1.639,1.639,0,0,1,1.453-1.772h0.933a0.507,0.507,0,0,1,.521.5,0.5,0.5,0,0,1-.521.487h-0.979a0.693,0.693,0,0,0-.412.735v7.021a0.739,0.739,0,0,0,.74.735h7.511a0.738,0.738,0,0,0,.739-0.735V46.738A0.671,0.671,0,0,0,353.55,46h-0.99a0.521,0.521,0,0,1-.521-0.519,0.483,0.483,0,0,1,.521-0.471h0.959A1.648,1.648,0,0,1,355,46.785v6.943A1.78,1.78,0,0,1,353.217,55.5ZM349.5,51a0.523,0.523,0,0,1-.5-0.487V44.15l-0.371.432a0.307,0.307,0,0,1-.512,0,0.544,0.544,0,0,1,0-.689l1.084-1.263a0.385,0.385,0,0,1,.591,0l1.084,1.263a0.547,0.547,0,0,1,0,.689,0.307,0.307,0,0,1-.513,0L350,44.15v6.364A0.522,0.522,0,0,1,349.5,51Z" transform="translate(-344 -42.5)"/>
</svg>
